<svg xmlns="http://www.w3.org/2000/svg" viewBox="0 0 960 380" role="img" aria-labelledby="t d"><title id="t">Pourcentage comme proportion sur cent</title><desc id="d">Une grille de cent cases dont vingt-cinq sont coloriées illustre vingt-cinq pour cent.</desc><rect width="960" height="380" rx="24" fill="#f8fafc"/><text x="44" y="50" font-family="Arial" font-size="24" font-weight="700">Un pourcentage exprime une proportion sur 100</text><g transform="translate(280 100)"><rect x="0" y="0" width="24" height="24" fill="#60a5fa" stroke="#cbd5e1"/><rect x="28" y="0" width="24" height="24" fill="#60a5fa" stroke="#cbd5e1"/><rect x="56" y="0" width="24" height="24" fill="#60a5fa" stroke="#cbd5e1"/><rect x="84" y="0" width="24" height="24" fill="#60a5fa" stroke="#cbd5e1"/><rect x="112" y="0" width="24" height="24" fill="#60a5fa" stroke="#cbd5e1"/><rect x="140" y="0" width="24" height="24" fill="#60a5fa" stroke="#cbd5e1"/><rect x="168" y="0" width="24" height="24" fill="#60a5fa" stroke="#cbd5e1"/><rect x="196" y="0" width="24" height="24" fill="#60a5fa" stroke="#cbd5e1"/><rect x="224" y="0" width="24" height="24" fill="#60a5fa" stroke="#cbd5e1"/><rect x="252" y="0" width="24" height="24" fill="#60a5fa" stroke="#cbd5e1"/><rect x="0" y="28" width="24" height="24" fill="#60a5fa" stroke="#cbd5e1"/><rect x="28" y="28" width="24" height="24" fill="#60a5fa" stroke="#cbd5e1"/><rect x="56" y="28" width="24" height="24" fill="#60a5fa" stroke="#cbd5e1"/><rect x="84" y="28" width="24" height="24" fill="#60a5fa" stroke="#cbd5e1"/><rect x="112" y="28" width="24" height="24" fill="#60a5fa" stroke="#cbd5e1"/><rect x="140" y="28" width="24" height="24" fill="#60a5fa" stroke="#cbd5e1"/><rect x="168" y="28" width="24" height="24" fill="#60a5fa" stroke="#cbd5e1"/><rect x="196" y="28" width="24" height="24" fill="#60a5fa" stroke="#cbd5e1"/><rect x="224" y="28" width="24" height="24" fill="#60a5fa" stroke="#cbd5e1"/><rect x="252" y="28" width="24" height="24" fill="#60a5fa" stroke="#cbd5e1"/><rect x="0" y="56" width="24" height="24" fill="#60a5fa" stroke="#cbd5e1"/><rect x="28" y="56" width="24" height="24" fill="#60a5fa" stroke="#cbd5e1"/><rect x="56" y="56" width="24" height="24" fill="#60a5fa" stroke="#cbd5e1"/><rect x="84" y="56" width="24" height="24" fill="#60a5fa" stroke="#cbd5e1"/><rect x="112" y="56" width="24" height="24" fill="#60a5fa" stroke="#cbd5e1"/><rect x="140" y="56" width="24" height="24" fill="#fff" stroke="#cbd5e1"/><rect x="168" y="56" width="24" height="24" fill="#fff" stroke="#cbd5e1"/><rect x="196" y="56" width="24" height="24" fill="#fff" stroke="#cbd5e1"/><rect x="224" y="56" width="24" height="24" fill="#fff" stroke="#cbd5e1"/><rect x="252" y="56" width="24" height="24" fill="#fff" stroke="#cbd5e1"/><rect x="0" y="84" width="24" height="24" fill="#fff" stroke="#cbd5e1"/><rect x="28" y="84" width="24" height="24" fill="#fff" stroke="#cbd5e1"/><rect x="56" y="84" width="24" height="24" fill="#fff" stroke="#cbd5e1"/><rect x="84" y="84" width="24" height="24" fill="#fff" stroke="#cbd5e1"/><rect x="112" y="84" width="24" height="24" fill="#fff" stroke="#cbd5e1"/><rect x="140" y="84" width="24" height="24" fill="#fff" stroke="#cbd5e1"/><rect x="168" y="84" width="24" height="24" fill="#fff" stroke="#cbd5e1"/><rect x="196" y="84" width="24" height="24" fill="#fff" stroke="#cbd5e1"/><rect x="224" y="84" width="24" height="24" fill="#fff" stroke="#cbd5e1"/><rect x="252" y="84" width="24" height="24" fill="#fff" stroke="#cbd5e1"/><rect x="0" y="112" width="24" height="24" fill="#fff" stroke="#cbd5e1"/><rect x="28" y="112" width="24" height="24" fill="#fff" stroke="#cbd5e1"/><rect x="56" y="112" width="24" height="24" fill="#fff" stroke="#cbd5e1"/><rect x="84" y="112" width="24" height="24" fill="#fff" stroke="#cbd5e1"/><rect x="112" y="112" width="24" height="24" fill="#fff" stroke="#cbd5e1"/><rect x="140" y="112" width="24" height="24" fill="#fff" stroke="#cbd5e1"/><rect x="168" y="112" width="24" height="24" fill="#fff" stroke="#cbd5e1"/><rect x="196" y="112" width="24" height="24" fill="#fff" stroke="#cbd5e1"/><rect x="224" y="112" width="24" height="24" fill="#fff" stroke="#cbd5e1"/><rect x="252" y="112" width="24" height="24" fill="#fff" stroke="#cbd5e1"/><rect x="0" y="140" width="24" height="24" fill="#fff" stroke="#cbd5e1"/><rect x="28" y="140" width="24" height="24" fill="#fff" stroke="#cbd5e1"/><rect x="56" y="140" width="24" height="24" fill="#fff" stroke="#cbd5e1"/><rect x="84" y="140" width="24" height="24" fill="#fff" stroke="#cbd5e1"/><rect x="112" y="140" width="24" height="24" fill="#fff" stroke="#cbd5e1"/><rect x="140" y="140" width="24" height="24" fill="#fff" stroke="#cbd5e1"/><rect x="168" y="140" width="24" height="24" fill="#fff" stroke="#cbd5e1"/><rect x="196" y="140" width="24" height="24" fill="#fff" stroke="#cbd5e1"/><rect x="224" y="140" width="24" height="24" fill="#fff" stroke="#cbd5e1"/><rect x="252" y="140" width="24" height="24" fill="#fff" stroke="#cbd5e1"/><rect x="0" y="168" width="24" height="24" fill="#fff" stroke="#cbd5e1"/><rect x="28" y="168" width="24" height="24" fill="#fff" stroke="#cbd5e1"/><rect x="56" y="168" width="24" height="24" fill="#fff" stroke="#cbd5e1"/><rect x="84" y="168" width="24" height="24" fill="#fff" stroke="#cbd5e1"/><rect x="112" y="168" width="24" height="24" fill="#fff" stroke="#cbd5e1"/><rect x="140" y="168" width="24" height="24" fill="#fff" stroke="#cbd5e1"/><rect x="168" y="168" width="24" height="24" fill="#fff" stroke="#cbd5e1"/><rect x="196" y="168" width="24" height="24" fill="#fff" stroke="#cbd5e1"/><rect x="224" y="168" width="24" height="24" fill="#fff" stroke="#cbd5e1"/><rect x="252" y="168" width="24" height="24" fill="#fff" stroke="#cbd5e1"/><rect x="0" y="196" width="24" height="24" fill="#fff" stroke="#cbd5e1"/><rect x="28" y="196" width="24" height="24" fill="#fff" stroke="#cbd5e1"/><rect x="56" y="196" width="24" height="24" fill="#fff" stroke="#cbd5e1"/><rect x="84" y="196" width="24" height="24" fill="#fff" stroke="#cbd5e1"/><rect x="112" y="196" width="24" height="24" fill="#fff" stroke="#cbd5e1"/><rect x="140" y="196" width="24" height="24" fill="#fff" stroke="#cbd5e1"/><rect x="168" y="196" width="24" height="24" fill="#fff" stroke="#cbd5e1"/><rect x="196" y="196" width="24" height="24" fill="#fff" stroke="#cbd5e1"/><rect x="224" y="196" width="24" height="24" fill="#fff" stroke="#cbd5e1"/><rect x="252" y="196" width="24" height="24" fill="#fff" stroke="#cbd5e1"/><rect x="0" y="224" width="24" height="24" fill="#fff" stroke="#cbd5e1"/><rect x="28" y="224" width="24" height="24" fill="#fff" stroke="#cbd5e1"/><rect x="56" y="224" width="24" height="24" fill="#fff" stroke="#cbd5e1"/><rect x="84" y="224" width="24" height="24" fill="#fff" stroke="#cbd5e1"/><rect x="112" y="224" width="24" height="24" fill="#fff" stroke="#cbd5e1"/><rect x="140" y="224" width="24" height="24" fill="#fff" stroke="#cbd5e1"/><rect x="168" y="224" width="24" height="24" fill="#fff" stroke="#cbd5e1"/><rect x="196" y="224" width="24" height="24" fill="#fff" stroke="#cbd5e1"/><rect x="224" y="224" width="24" height="24" fill="#fff" stroke="#cbd5e1"/><rect x="252" y="224" width="24" height="24" fill="#fff" stroke="#cbd5e1"/><rect x="0" y="252" width="24" height="24" fill="#fff" stroke="#cbd5e1"/><rect x="28" y="252" width="24" height="24" fill="#fff" stroke="#cbd5e1"/><rect x="56" y="252" width="24" height="24" fill="#fff" stroke="#cbd5e1"/><rect x="84" y="252" width="24" height="24" fill="#fff" stroke="#cbd5e1"/><rect x="112" y="252" width="24" height="24" fill="#fff" stroke="#cbd5e1"/><rect x="140" y="252" width="24" height="24" fill="#fff" stroke="#cbd5e1"/><rect x="168" y="252" width="24" height="24" fill="#fff" stroke="#cbd5e1"/><rect x="196" y="252" width="24" height="24" fill="#fff" stroke="#cbd5e1"/><rect x="224" y="252" width="24" height="24" fill="#fff" stroke="#cbd5e1"/><rect x="252" y="252" width="24" height="24" fill="#fff" stroke="#cbd5e1"/></g><text x="650" y="220" font-family="Arial" font-size="30" font-weight="700" fill="#1e3a8a">25 %</text></svg>